<?xml version="1.0" encoding="UTF-8" standalone="no"?>
<svg
   xmlns:dc="http://purl.org/dc/elements/1.1/"
   xmlns:cc="http://creativecommons.org/ns#"
   xmlns:rdf="http://www.w3.org/1999/02/22-rdf-syntax-ns#"
   xmlns:svg="http://www.w3.org/2000/svg"
   xmlns="http://www.w3.org/2000/svg"
   viewBox="0 0 144 22.746668"
   height="22.746668"
   width="144"
   xml:space="preserve"
   id="svg2"
   version="1.1"><metadata
     id="metadata8"><rdf:RDF><cc:Work
         rdf:about=""><dc:format>image/svg+xml</dc:format><dc:type
           rdf:resource="http://purl.org/dc/dcmitype/StillImage" /></cc:Work></rdf:RDF></metadata><defs
     id="defs6" /><g
     transform="matrix(1.3333333,0,0,-1.3333333,0,22.746667)"
     id="g10"><g
       transform="scale(0.1)"
       id="g12"><path
         id="path14"
         style="fill:#cd1e25;fill-opacity:1;fill-rule:nonzero;stroke:none"
         d="M 1080,0 H 0 V 170.645 H 1080 V 0" /><path
         id="path16"
         style="fill:#ffffff;fill-opacity:1;fill-rule:nonzero;stroke:none"
         d="M 60.3438,46.582 V 124.02 H 82.207 l 20.606,-53.6177 h 0.207 V 124.02 h 15.117 V 46.582 H 96.8047 L 75.6641,103.199 H 75.4609 V 46.582 H 60.3438" /><path
         id="path18"
         style="fill:#ffffff;fill-opacity:1;fill-rule:nonzero;stroke:none"
         d="m 131.035,85.2891 c 0,20.4919 0,40.0039 26.707,40.0039 16.528,0 23.176,-9.109 22.539,-25.7305 h -15.886 c 0,10.2855 -1.817,14.1645 -6.653,14.1645 -9.109,0 -10.308,-8.59 -10.308,-28.4379 0,-19.8399 1.199,-28.4141 10.308,-28.4141 7.5,0 7.199,9.6406 7.414,15.7656 h 15.977 c 0,-20.6875 -8.262,-27.3476 -23.391,-27.3476 -26.707,0 -26.707,19.7461 -26.707,39.9961" /><path
         id="path20"
         style="fill:#ffffff;fill-opacity:1;fill-rule:nonzero;stroke:none"
         d="m 236.262,45.293 c -20.063,0 -23.813,11.8281 -22.973,25.1953 h 16.223 c 0,-7.3906 0.301,-13.6133 9.211,-13.6133 5.488,0 8.132,3.5469 8.132,8.7891 0,13.9687 -32.585,14.8086 -32.585,37.8709 0,12.11 5.789,21.758 25.535,21.758 15.761,0 23.574,-7.059 22.519,-23.266 h -15.769 c 0,5.797 -0.981,11.7 -7.512,11.7 -5.242,0 -8.359,-2.907 -8.359,-8.258 0,-14.7112 32.597,-13.4065 32.597,-37.7542 0,-20.0507 -14.718,-22.4218 -27.019,-22.4218" /><path
         id="path22"
         style="fill:#ffffff;fill-opacity:1;fill-rule:nonzero;stroke:none"
         d="M 320.984,124.02 V 111.137 H 302.988 V 46.582 h -16.211 v 64.555 h -18.015 v 12.883 h 52.222" /><path
         id="path24"
         style="fill:#ffffff;fill-opacity:1;fill-rule:nonzero;stroke:none"
         d="m 347.355,109.098 h -0.226 l -7.395,-33.4691 h 15.442 z M 316.16,46.582 337.578,124.02 h 21.36 l 21.003,-77.438 h -17.05 L 358.613,63.75 H 336.504 L 332.117,46.582 H 316.16" /><path
         id="path26"
         style="fill:#ffffff;fill-opacity:1;fill-rule:nonzero;stroke:none"
         d="M 427.188,124.02 V 111.137 H 409.141 V 46.582 h -16.192 v 64.555 h -18.008 v 12.883 h 52.247" /><path
         id="path28"
         style="fill:#ffffff;fill-opacity:1;fill-rule:nonzero;stroke:none"
         d="m 434.707,46.582 v 77.438 h 42.234 V 112.109 H 450.898 V 93.0078 H 474.91 V 81.1172 H 450.898 V 58.4883 h 26.915 V 46.582 h -43.106" /><path
         id="path30"
         style="fill:#ffffff;fill-opacity:1;fill-rule:nonzero;stroke:none"
         d="m 519.246,75.3359 c 0,-10.082 0,-24.4648 15.766,-24.4648 15.769,0 15.769,14.3828 15.769,24.4648 V 124.02 h 6.856 V 70.2656 c 0,-19.9336 -10.524,-25.1875 -22.625,-25.1875 -12.121,0 -22.629,5.2539 -22.629,25.1875 V 124.02 h 6.863 V 75.3359" /><path
         id="path32"
         style="fill:#ffffff;fill-opacity:1;fill-rule:nonzero;stroke:none"
         d="m 577.93,46.582 v 77.438 h 10.527 l 31.406,-67.9927 0.215,0.2149 V 124.02 h 6.856 V 46.582 h -10.411 l -31.484,68.75 -0.234,-0.234 V 46.582 h -6.875" /><path
         id="path34"
         style="fill:#ffffff;fill-opacity:1;fill-rule:nonzero;stroke:none"
         d="M 655.391,124.02 V 46.582 h -6.875 v 77.438 h 6.875" /><path
         id="path36"
         style="fill:#ffffff;fill-opacity:1;fill-rule:nonzero;stroke:none"
         d="m 714.59,124.02 h 6.64 L 699.785,46.582 h -8.555 l -21.582,77.438 h 7.305 l 18.36,-69.2739 h 0.175 L 714.59,124.02" /><path
         id="path38"
         style="fill:#ffffff;fill-opacity:1;fill-rule:nonzero;stroke:none"
         d="m 770.273,124.02 v -5.786 H 742.07 V 89.2813 h 26.953 V 83.4609 H 742.07 V 52.375 h 28.946 v -5.793 h -35.801 v 77.438 h 35.058" /><path
         id="path40"
         style="fill:#ffffff;fill-opacity:1;fill-rule:nonzero;stroke:none"
         d="m 793.77,89.9219 h 11.171 c 10.293,0 15.098,2.6601 15.098,15.6561 0,10.606 -4.18,12.656 -12.207,12.656 H 793.77 Z m 0,-5.7969 V 46.582 h -6.836 v 77.438 h 21.328 c 14.922,0 18.652,-4.938 18.652,-18.551 0,-9.6721 -1.621,-16.094 -12.012,-18.4573 v -0.2148 c 10.84,-2.2422 11.485,-3.5313 11.485,-31.211 0,-2.9882 0.527,-5.9765 0.722,-9.0039 h -6.504 c -0.664,2.2657 -0.976,15.1368 -1.093,19.2891 -0.098,3.3477 2.148,18.2539 -12.735,18.2539 H 793.77" /><path
         id="path42"
         style="fill:#ffffff;fill-opacity:1;fill-rule:nonzero;stroke:none"
         d="m 878.535,104.395 c -0.195,9.527 -2.578,15.328 -13.105,15.328 -8.34,0 -13.614,-2.895 -13.614,-12.008 0,-11.4884 5.801,-11.7853 14.61,-18.1408 9.531,-6.8359 19.277,-8.8867 19.277,-23.9101 0,-13.8282 -7.051,-20.586 -20.566,-20.586 -15.117,0 -21.895,8.1758 -21.27,23.293 h 7.129 c 0,-8.5859 0.625,-17.5 14.434,-17.5 9.023,0 13.418,4.832 13.418,13.75 0,10.5 -6.973,13.4883 -18.125,20.3437 -14.981,9.2461 -15.645,13.8399 -15.762,21.5702 -0.098,13.399 8.379,18.973 21.016,18.973 16.093,0 19.531,-9.961 19.531,-21.113 h -6.973" /><path
         id="path44"
         style="fill:#ffffff;fill-opacity:1;fill-rule:nonzero;stroke:none"
         d="M 911.895,124.02 V 46.582 h -6.856 v 77.438 h 6.856" /><path
         id="path46"
         style="fill:#ffffff;fill-opacity:1;fill-rule:nonzero;stroke:none"
         d="m 945.566,118.234 h -18.847 v 5.786 h 44.609 v -5.786 H 952.461 V 46.582 h -6.895 v 71.652" /><path
         id="path48"
         style="fill:#ffffff;fill-opacity:1;fill-rule:nonzero;stroke:none"
         d="M 1000.96,78.7539 979.063,124.02 h 7.734 l 17.693,-38.5083 18.56,38.5083 h 6.85 L 1007.83,78.7539 V 46.582 h -6.87 v 32.1719" /></g></g></svg>